<svg xmlns="http://www.w3.org/2000/svg" viewBox="0 0 128 128"><path style="fill:#966738;" d="M4.3,11.5c-1.7,3,1,9.4,14.1,12c16.3,3.2,33.9-3.3,47.1-1 c7.5,1.3,12.3,3,15.1,4.3c2.1,1,2.1,1.1,2.1,1.1l3.4-10.7c0,0-9.4-5.1-22-5.7s-22,3.6-34.5,3.2 C10.7,14.1,7,6.8,4.3,11.5z"/><path style="fill:#966738;" d="M102.2,45.7l10.4-4.2c0,0,5.4,7.5,7.3,22.3c2.3,17.6-3.2,29.3-1.4,39.2 s5.7,15.3,5.4,17.7c-.3,2.4-2,4.9-4.2,3.7c-2.2-1.2-9.2-10.2-9.5-22.6c-.3-13.7,3.5-25.2,.3-37.4 C106.9,50.8,102.2,45.7,102.2,45.7z"/><path style="fill:#D29F6C;" d="M85.3,16.6l-4.5,10.2c0,0,6,2.7,12.6,8.7c5.8,5.3,9.9,11.7,9.9,11.7l9.3-5.7 c0,0-4.8-8.5-11.8-14.6C92.4,19.6,85.3,16.6,85.3,16.6z"/><polygon style="fill:#F3C976;" points="102.7,21 33.7,91.6 34,94.9 37,95.4 106.7,24.9 "/><path style="fill:#858585;" d="M105.7,17.6l-3.6,4l3.9,3.9l4.2-3.8c0,0,6.6,1.3,7.3,.9 c1-.6,6.8-18.5,6.5-19c-.5-.8-6.6,1.7-10.4,3c-4.6,1.6-8.4,3.2-8.8,3.7 C104.1,11.4,105.7,17.6,105.7,17.6z"/><g><path style="fill:#B8CED4;" d="M115.4,122c-.2,0-.3-0-.5-.1L31.5,99.4c-.7-.2-1.2-.7-1.4-1.4L8.9,20.9 c-.1-.4-.1-.7,0-1.1l2.6-8.5l3.8,1.2l-2,9.3L33.5,95.3l81.1,22.7l6-7l1.5,3.9l-5.2,6.4 C116.5,121.8,116,122,115.4,122z"/></g><path style="fill:#5D6265;" d="M33.8,92.2L37,95.4c0,0-3.4,4.1-3.9,4.1c-.3,0-3.1-2.2-2.9-2.7 C30.4,96.3,33.8,92.2,33.8,92.2z"/><path style="fill:#DB0D2A;" d="M51.7,73.8c-0,.1-5.3,5.7-10.2,10.8c-3.8,4-7.4,7.9-7.6,7.9 c-.6,0-6.1-5.2-6.2-6.4S36,77.5,40,74.7C48.3,68.9,51.7,73.8,51.7,73.8z"/><path style="fill:#DB0D2A;" d="M54.8,77c-.2,.2-6.3,6.4-11.3,11.5c-3.4,3.5-6.5,6.5-6.5,6.8 c-0,.4,4.6,5.8,5.1,5.8c.9,0,9.7-9.4,12.5-14.2C58.6,80,54.8,77,54.8,77z"/></svg>