<svg xmlns="http://www.w3.org/2000/svg" viewBox="0 0 128 128"><path style="fill:#FFEAC9;" d="M16.1,63.6l8.5-3.9c0,0-2.1-3.4-2.8-5.3c-.7-1.9-2.1-6.2-4.3-6.2 s-3.4,5.3-3.2,8.5C14.4,59.8,16.1,63.6,16.1,63.6z"/><path style="fill:#543731;" d="M108.1,56.7c0,0,2.8-.8,5.7-.3s7.2,2.3,8.1,1.9c.9-.3,1.3-1.9,.4-2.8 s-14.5-1.9-14.5-1.9L108.1,56.7z"/><path style="fill:#543731;" d="M108.6,71.4l1.8,3.6c0,0,4.1,26.4,4.8,26.4c.7,0,2.4,0,2.8-1.6 c.8-3.5,.7-9.4-.7-15.4c-1-4.6-3.1-8.4-3.1-8.4s2.1,.5,3.8,1.3c2,.9,4.8,2.7,5.5,2.5 c.7-.1-.2-3.4-.6-4.1C122.5,75,108.6,71.4,108.6,71.4z"/><path style="fill:#543731;" d="M94.5,89.1l.7,8l5,14.4c0,0,.6-.1,1.6,0c1.9,.1,1.2-5,.3-9.5 c-.8-4.5-4.1-11.9-4.1-11.9L94.5,89.1z"/><path style="fill:#543731;" d="M79.9,101.5l-4.1,.7l-2.6,17.7c0,0,1.5,.8,2.5,.2c1-.6,2.4-3.7,3.1-8.6 C79.4,105.8,79.9,101.5,79.9,101.5z"/><path style="fill:#865B52;" d="M69.8,26.6c0,0-10.9-1.8-18.2,1.7c-7.8,3.8-13.3,12.2-19.1,19.5 c-5.3,6.6-10.2,11-13,11.7c-2.8,.8-8.6,1.7-8.6,1.7l-1.5,19.9c0,0-.2,4.5,1.7,5.6c1.9,1.1,5.8,3.2,7.1,3.2 c1.3,0,5.6,.6,5.6,.6s.2,2.4,3.9,3.9c3.8,1.5,12,3.2,16,5.4s14.6,9.2,17.6,11.8 c3,2.6,10.8,9.2,13,8.5c1.1-.4,2.2-16.7,3-17.1s8.6,4.3,13.5,6c5.1,1.7,9.4,2.9,10,2.4 c.8-.7-.2-6.6-1.5-10.3c-1.3-3.7-3.8-8.9-2.9-10s17.7,11.5,19.2,10.3c.8-.6,.5-10.4-.7-16.8 c-1.4-7.1-4-10-3.5-10.8c.4-.7,4.9,.4,7.3,1.6c1.9,1,4.4,2.7,4.8,2.2c.6-.7-3.4-8.6-6-12.3 c-3.9-5.6-9-9.4-9-10c0-.6,3.3-.6,6.6-.2c3.4,.4,7.4,2.1,7.7,1.5c.3-.5-1.5-4.3-5.6-8.4 c-4.1-4.1-13.3-7.7-13.3-7.7l-5.3-16.5c0,0,1.1-2.4,.4-4.5c-.7-2.2-2.5-2.7-2.6-3.2 c-.1-.5,4.1-4.3,.4-7.5s-14.8,4.3-19,8.3C73.5,20.8,69.8,26.6,69.8,26.6z"/><path style="fill:#543731;" d="M90.5,27.1c0,0,6.2-4.1,14.5-5.8c9.3-1.8,14.3-1.3,16.4-1.3c2.3,0,2.8,1.1,1.7,4.3 s-3.3,9.8-6.8,14.9c-3.7,5.6-7,9.2-12.1,11.6c-5.1,2.4-16.1,5.2-16.8,1.9c-.4-2,1.6-2.3,5.4-5.1 c4-2.9,7.5-6.5,6.1-9.1s-7-.9-12.1,2.5c-5,3.4-8.6,8.7-11.6,5.8c-3-3,1.9-8.7,3.7-10.8 c1.8-2,6.3-5.7,6.3-5.7s-2.8-.8-4.8-1.2c-2-.3-6.8-1.7-6.8-1.7s6-1.2,10.1-1.1 C87.8,26.7,90.5,27.1,90.5,27.1z"/><path style="fill:#FFEACA;" d="M38.4,89.4c0,0-2.2-6.4-1.8-12.3c.5-5.9,2.1-10.1,4.8-9.8c2.7,.3,4,6,4.7,8.5 c.7,2.5,1.4,4.2,1.8,4.7s2.9,3,2.9,3l-6,5L38.4,89.4z"/><path style="fill:#503430;" d="M51.8,83.2c1,1.2,.3,3.2-2,5c-2.4,1.8-6.7,3.5-13.6,4.5 c-5.4,.8-9.2,.3-11-0c-2.2-.4-3.1-1.1-3.1-1.1s-3.7-.5-6.9-1.9c-2.9-1.3-6-3.6-5.7-4.4 c.4-1.3,5.6,2.4,9,3.1s8,.8,12.7,.6c4.7-.2,9.6-1.4,12.7-2.8C48.2,84.1,50.3,81.3,51.8,83.2z"/><path style="fill:#FFD3B0;" d="M10.4,60.3c-2.9-.5-5.9,5.1-6,10.4c-.1,5.6,1.3,8.4,2,10.3s2.2,5,4.9,5 c2.5,0,10.4-5,10.6-11.2C22.2,67.7,16.5,61.3,10.4,60.3z"/><ellipse style="fill:#47302D;" cx="13.5" cy="72.1" rx="2.2" ry="4.2"/><path style="fill:#47302D;" d="M8,70.4c-.1,2.3-1.1,4.4-2.1,4.3s-1.4-2.4-1.3-4.7c.1-2.3,.7-3.9,1.7-3.8 S8.1,68.2,8,70.4z"/><ellipse transform="matrix(.2 -1 1 .2 -3.6 109.4)" style="fill:#090A0B;" cx="61.8" cy="56.8" rx="6.3" ry="4.3"/><ellipse transform="matrix(.4 -.9 .9 .4 -13.5 87.8)" style="fill:#FFFCFF;" cx="60" cy="54.2" rx="2.9" ry="1.7"/><path style="fill:#B79277;" d="M71.9,97.8c.9,.1,2-14.3-3.9-11.8C61.3,89,71,97.8,71.9,97.8z"/><path style="fill:#B79277;" d="M85.6,84.4c.5-.8-5.2-11.5-8.3-7.2C73.3,82.7,85,85.3,85.6,84.4z"/><path style="fill:#B79277;" d="M93.4,68.8c.2-.5-7.7-10.3-10-4.2C81.7,69.2,93.1,69.6,93.4,68.8z"/><path style="fill:#B79277;" d="M102.3,84.2c.3-.5-5.4-11.2-8.6-6.4C90.7,82.3,102,84.7,102.3,84.2z"/><path style="fill:#B79277;" d="M87,100c.7-.4-2.7-11-6.5-7.7C76.7,95.5,86.2,100.5,87,100z"/></svg>