<svg xmlns="http://www.w3.org/2000/svg" viewBox="0 0 128 128"><g><rect x="93.2" y="51.1" transform="matrix(.1 -1 1 .1 44.2 153.2)" style="fill:#504F4F;" width="28.3" height="2"/></g><circle style="fill:#504F4F;" cx="41.8" cy="64" r="21.8"/><radialGradient id="SVGID_1_" cx="88" cy="75.2" r="21.4" gradientTransform="matrix(-1 0 0 -1 129.8 128)" gradientUnits="userSpaceOnUse"><stop offset="0" style="stop-color:#EEEEEE"/><stop offset="1" style="stop-color:#BDBDBD"/></radialGradient><circle style="fill:url(#SVGID_1_);" cx="41.8" cy="64" r="10"/><circle style="opacity:.2;fill:none;stroke:#EEEEEE;stroke-width:.9;stroke-miterlimit:10;enable-background:new ;" cx="41.8" cy="64" r="18"/><circle style="opacity:.2;fill:none;stroke:#EEEEEE;stroke-miterlimit:10;enable-background:new ;" cx="41.8" cy="64" r="14.6"/><circle style="fill:#504F4F;" cx="89.8" cy="64" r="17.2"/><radialGradient id="SVGID_2_" cx="39.7" cy="74.7" r="21" gradientTransform="matrix(-1 0 0 -1 129.8 128)" gradientUnits="userSpaceOnUse"><stop offset="0" style="stop-color:#EEEEEE"/><stop offset="1" style="stop-color:#BDBDBD"/></radialGradient><circle style="fill:url(#SVGID_2_);" cx="89.8" cy="64" r="10"/><circle style="opacity:.2;fill:none;stroke:#EEEEEE;stroke-miterlimit:10;enable-background:new ;" cx="89.8" cy="64" r="13.5"/><path style="fill:#595858;" d="M4,32v64c0,2.2,1.8,4,4,4h112c2.2,0,4-1.8,4-4V32c0-2.2-1.8-4-4-4H8C5.8,28,4,29.8,4,32z M40,78c0,1.1-.9,2-2,2H20c-2.2,0-8-7.2-8-16s5.8-16,8-16h18c1.1,0,2,.9,2,2V78z M108,80H90c-1.1,0-2-.9-2-2V50 c0-1.1,.9-2,2-2h18c2.2,0,8,7.2,8,16S110.2,80,108,80z"/><rect x="11.9" y="38.2" style="fill:#787676;" width="104" height="2"/><rect x="11.9" y="42.2" style="fill:#787676;" width="104" height="2"/><rect x="12" y="88" style="fill:#787676;" width="104" height="2"/><rect x="12" y="92" style="fill:#787676;" width="104" height="2"/><rect x="12" y="84" style="fill:#787676;" width="104" height="2"/><g style="opacity:.2;"><path style="fill:#424242;" d="M82,48c1.1,0,2,.9,2,2v28c0,1.1-.9,2-2,2H46c-1.1,0-2-.9-2-2V50c0-1.1,.9-2,2-2H82 M82,46H46 c-2.2,0-4,1.8-4,4v28c0,2.2,1.8,4,4,4h36c2.2,0,4-1.8,4-4V50C86,47.8,84.2,46,82,46z"/></g><radialGradient id="SVGID_3_" cx="63.5" cy="79.5" r="21.8" gradientTransform="matrix(1 0 0 -1 0 128)" gradientUnits="userSpaceOnUse"><stop offset="0" style="stop-color:#EF5350"/><stop offset="1" style="stop-color:#E53935"/></radialGradient><path style="fill:url(#SVGID_3_);" d="M84,50c0-1.1-.9-2-2-2H46c-1.1,0-2,.9-2,2v6h40V50z"/><radialGradient id="SVGID_4_" cx="63.3" cy="72.8" r="28.4" gradientTransform="matrix(1 0 0 -1 0 128)" gradientUnits="userSpaceOnUse"><stop offset="0" style="stop-color:#FAFAFA"/><stop offset="1" style="stop-color:#EEEEEE"/></radialGradient><path style="fill:url(#SVGID_4_);" d="M44,56v22c0,1.1,.9,2,2,2h36c1.1,0,2-.9,2-2V56H44z"/><path style="fill:#BDBDBD;" d="M77,66H51c-.5,0-1-.4-1-1v-2c0-.5,.5-1,1-1h26c.6,0,1,.5,1,1v2C78,65.6,77.6,66,77,66z "/><path style="fill:#BDBDBD;" d="M77,74H51c-.5,0-1-.4-1-1v-2c0-.5,.5-1,1-1h26c.6,0,1,.5,1,1v2C78,73.6,77.6,74,77,74z "/><path style="fill:#424242;" d="M64,28H7.9C5.7,28,4,29.7,4,31.9v12.3h4.7l.1-8h110.5l-.1,8H124V31.9 c0-2.1-1.7-3.9-3.9-3.9H64z"/></svg>