<svg xmlns="http://www.w3.org/2000/svg" viewBox="0 0 128 128"><g><g><circle style="fill:#98C0D0;" cx="64" cy="64" r="60"/><circle style="fill:#FCEBCD;" cx="64" cy="64" r="48.1"/><path style="fill:#C2E3F0;" d="M50.3,15.1c-6.4,1.9-15.4,4.7-25,16.2C15.8,42.6,13.8,55.8,13.2,65 c0,0-5.5,6.9-5.7,5.6c-2.1-9.9,2.1-32.2,13-43.9C33.2,12.9,49.8,8.1,55.7,7.2C56.8,7,52.3,14.5,50.3,15.1 z"/><g><circle style="fill:#FFFFFF;" cx="64" cy="64" r="45.6"/></g></g><g><line style="fill:none;stroke:#563428;stroke-width:4;stroke-linecap:round;stroke-miterlimit:10;" x1="64" y1="35" x2="64" y2="64"/><circle style="fill:#563428;" cx="64" cy="64" r="5.1"/><line style="fill:none;stroke:#563428;stroke-width:6;stroke-linecap:round;stroke-miterlimit:10;" x1="45.7" y1="74.7" x2="64" y2="64"/></g><g><line style="fill:none;stroke:#6596A3;stroke-width:5;stroke-miterlimit:10;" x1="64" y1="100" x2="64" y2="105"/><line style="fill:none;stroke:#6596A3;stroke-width:5;stroke-miterlimit:10;" x1="64" y1="23" x2="64" y2="28"/><line style="fill:none;stroke:#6596A3;stroke-width:5;stroke-miterlimit:10;" x1="64" y1="100" x2="64" y2="105"/><line style="fill:none;stroke:#6596A3;stroke-width:5;stroke-miterlimit:10;" x1="64" y1="23" x2="64" y2="28"/><line style="fill:none;stroke:#6596A3;stroke-width:5;stroke-miterlimit:10;" x1="28" y1="64" x2="23" y2="64"/><line style="fill:none;stroke:#6596A3;stroke-width:5;stroke-miterlimit:10;" x1="105" y1="64" x2="100" y2="64"/><line style="fill:none;stroke:#6596A3;stroke-width:5;stroke-miterlimit:10;" x1="28" y1="64" x2="23" y2="64"/><line style="fill:none;stroke:#6596A3;stroke-width:5;stroke-miterlimit:10;" x1="105" y1="64" x2="100" y2="64"/><line style="fill:none;stroke:#B0BEC5;stroke-width:3;stroke-miterlimit:10;" x1="46" y1="95.2" x2="43.5" y2="99.5"/><line style="fill:none;stroke:#B0BEC5;stroke-width:3;stroke-miterlimit:10;" x1="84.5" y1="28.5" x2="82" y2="32.8"/><line style="fill:none;stroke:#B0BEC5;stroke-width:3;stroke-miterlimit:10;" x1="46" y1="95.2" x2="43.5" y2="99.5"/><line style="fill:none;stroke:#B0BEC5;stroke-width:3;stroke-miterlimit:10;" x1="84.5" y1="28.5" x2="82" y2="32.8"/><line style="fill:none;stroke:#B0BEC5;stroke-width:3;stroke-miterlimit:10;" x1="82" y1="95.2" x2="84.5" y2="99.5"/><line style="fill:none;stroke:#B0BEC5;stroke-width:3;stroke-miterlimit:10;" x1="43.5" y1="28.5" x2="46" y2="32.8"/><line style="fill:none;stroke:#B0BEC5;stroke-width:3;stroke-miterlimit:10;" x1="82" y1="95.2" x2="84.5" y2="99.5"/><line style="fill:none;stroke:#B0BEC5;stroke-width:3;stroke-miterlimit:10;" x1="43.5" y1="28.5" x2="46" y2="32.8"/><line style="fill:none;stroke:#B0BEC5;stroke-width:3;stroke-miterlimit:10;" x1="95.2" y1="82" x2="99.5" y2="84.5"/><line style="fill:none;stroke:#B0BEC5;stroke-width:3;stroke-miterlimit:10;" x1="28.5" y1="43.5" x2="32.8" y2="46"/><line style="fill:none;stroke:#B0BEC5;stroke-width:3;stroke-miterlimit:10;" x1="95.2" y1="82" x2="99.5" y2="84.5"/><line style="fill:none;stroke:#B0BEC5;stroke-width:3;stroke-miterlimit:10;" x1="28.5" y1="43.5" x2="32.8" y2="46"/><line style="fill:none;stroke:#B0BEC5;stroke-width:3;stroke-miterlimit:10;" x1="32.8" y1="82" x2="28.5" y2="84.5"/><line style="fill:none;stroke:#B0BEC5;stroke-width:3;stroke-miterlimit:10;" x1="99.5" y1="43.5" x2="95.2" y2="46"/><line style="fill:none;stroke:#B0BEC5;stroke-width:3;stroke-miterlimit:10;" x1="32.8" y1="82" x2="28.5" y2="84.5"/><line style="fill:none;stroke:#B0BEC5;stroke-width:3;stroke-miterlimit:10;" x1="99.5" y1="43.5" x2="95.2" y2="46"/></g></g></svg>