<svg xmlns="http://www.w3.org/2000/svg" viewBox="0 0 128 128"><g><path style="fill:#694D42;" d="M77.5,83.8c4.9,2.5,14.1,4.9,18.9,4.2c12.6-1.8,21.7-9.1,27.2-19.2 c2.3-4.3,2.5-12.9-1.2-13.9c-4.7-1.2-10.4-.3-19.1,3.9c-8.9,4.2-11,10.8-21.5,5.7"/><path style="opacity:.4;fill:#B3937C;" d="M79.9,75.1c1.8,1.2,2.1,1.9,3.6,3.5c3,3.2,10,3.3,11.4,3.4 c8.1,.1,12-1.8,17.2-5.3s10.1-11,11-14.7c.6-2.6,.9-4.5,.8-6.1c-.4-.4-.8-.8-1.4-.9 c-4.7-1.2-10.4-.3-19.1,3.9c-8.9,4.2-11,10.8-21.5,5.7l-2.3,10.2L79.9,75.1z"/><path style="fill:#694D42;" d="M123.5,60c.2-.9,.3-1.8,.4-2.6l-5.4-2.3l.3-.7c-1.8-0-3.9,.2-6.2,.8 l2.6,1.1l-2.7,6l-6-2.7l1.3-2.9c-1.1,.4-5.1,2.1-6.8,3.2l2.3,1l-2.7,6l-6-2.7 c-1.1,.7-2.2,1.3-3.5,1.6l-6,13.7c.7,.4,1.5,.7,2.3,.9l2.5-5.6l6,2.7c0,0-1.2,2.8-1.9,4.3 c.4,0,2.1,0,2.7,0l1.5-3.3l5.3,2.3c1.6-.5,3.1-1.1,4.5-1.8l2.2-5.1l3.4,1.5 c.7-.6,1.4-1.2,2-1.8l-4.4-2l2.7-6l6.1,2.7c.5-.7,.9-1.4,1.3-2.1l-6.4-2.8l2.7-6L123.5,60z M96.8,75.3l-6-2.7l2.7-6l6,2.7L96.8,75.3z M105.2,79l-6-2.7l2.7-6l6,2.7L105.2,79z M108.8,70.7l-6-2.7l2.7-6l6,2.7L108.8,70.7z"/><path style="fill:#825B4E;" d="M17.4,8.2c-1-.2-2.1-.3-3.1-.3c-.4-0-.9-0-1.3,.2 c-.3,.2-.5,.5-.7,.8c-.9,1.7-1,3.9-.3,5.7c.2,.5,.5,1,1,.9c.2-0,.3-.1,.5-.3 c1.5-1.2,2.9-2.4,4.1-3.9c.2-.2,.4-.6,.2-.8"/><path style="fill:#694D42;" d="M57.4,102.1c-8.6,4.2-14.4,9.1-20.4,15.1c-.4,.5-2.3,2.5-1.2,3.1 c1.2,.6,4-1.5,4.9-.9c1,.7,.3,1.8,1.3,2.5c1,.7,3.8-1.4,5.2-.8c1.4,.6,.8,1.7,1.6,2.7 c1.1,1.3,3.5,.1,4.1-.4c3.8-3,13.2-11.9,14.8-13.9c2.2-2.6,3.6-6,1.6-8.3"/><path style="fill:#694D42;" d="M28.3,99.2c-5.1,1.6-10.1,3.8-14.7,6.5c-1,.6-1.9,1.1-2.7,1.9 c-.3,.3-.7,.9-.4,1.3c.8,.7,2.3-.5,3.5,.5c.4,.3,.2,1.7,.5,2.1c.3,.4,.9,.6,1.5,.6 s1.1-.2,1.6-.4c1.2-.3,2.4-.6,3.1,.4c.5,.6,.5,1.1,.8,1.7c.2,.4,.6,.8,1.4,.8 c1.3-0,2.5-.6,3.6-1.3c4.9-3.3,9.6-7,14.2-10.6"/><path style="fill:#825B4E;" d="M47.3,12.4c3.5,1,4.3-0,6.9,.2c3.3,.3,2.9,3.4,2.4,5.1 c-.6,2.2-1.9,4-3.6,5.5c-.3,.3-.6,.5-1,.5c-.5,0-.9-.2-1.3-.5c-2.4-1.9-3.9-4.9-4-7.9"/><path style="fill:#B38A6D;" d="M12.2,41.1c0,0-6.1,.7-8.3,7.3C.7,58,9.1,63.6,9.1,63.6S6.8,83.3,18.8,94.1 s15.9,11.2,30,13.8s27.1-6.5,30.5-10.1s8.6-11.2,9.6-20.7c.9-9.4-7.4-25.9-15-34.6S50.8,20.6,50.8,20.6 L28.4,41.4L12.2,41.1z"/><path style="fill:#B38A6D;" d="M48.3,13.2c-5.6-7.8-11.8-9.4-18.6-9.4c-7.4,0-14.4,5.4-17.6,9.7 c-2.6,3.5-5.8,9.1-6.3,15.6c-.4,5.1,1.3,9.9,6.3,13.4c5,3.5,25.1,7.7,33.3,2.1c7.2-4.9,9.6-11.6,8.9-17.2 C53.8,23.4,52.6,19.3,48.3,13.2z"/><ellipse transform="matrix(1 -.3 .3 1 -3.7 11.9)" style="fill:#212121;" cx="36.3" cy="17.7" rx="2.4" ry="3.2"/><path style="fill:#FFECB3;" d="M15.6,32.8c-.5,3.6,1.1,9.1,2.4,9c1.1-.1,1.4-2.3,1.4-2.3s1,2.8,2.7,2.7 c1.7-.2,1.6-6.2,2-9.1l-5.7-2.3L15.6,32.8z"/><path style="fill:#212121;" d="M11.8,15.9c.3-1,1.3-2.3,2.8-2.3c1.6,.1,1.3,2.4,.8,3.6 c-.6,1.2-1.8,2.4-3.1,1.6C11.5,18.3,11.6,16.6,11.8,15.9z"/><path style="fill:#825B4E;" d="M41.5,67.4c-12.8-4.3-13.3-17.1-17.3-20.1c-1.3-1-2.6-1.3-4-2 c-1.2-.6-2.7-1.3-4-.8c.9,.6,1.7,1.4,2.4,2.3c-1.3,.1-3.2,.3-3.9,1.1c-.1,.1,0,.4,.2,.4 c.2,.1,2.3,.5,3.2,1.3c-.7,.6-1.5,1.1-2,1.7c-.3,.4-0,.6,.1,.7c.9,.3,2,.1,2.8,.5 c.9,.4,1.5,1.2,2.3,1.8c.9,.7,2.1,1.1,3.2,1.1c1.9,4,4.4,7.4,7.7,10.4c3,2.8,6.7,4.8,10.8,5.5 c12.9,2.4,18.7-10.8,18.7-10.8S52.4,71.1,41.5,67.4z"/><path style="fill:#212121;" d="M21.8,18.5c-.5-.7-1.4-.7-2.1-.2c-1.5,1.4-3,2.7-3.6,3.7 c-.4,.7-.8,2.1,0,3.1c.8,1,3.4,3.1,3.4,3.1s3.2-1.5,4.2-2.2c1.2-.9,1.5-2.7,.5-4.2 C23.7,21,22.6,19.5,21.8,18.5z"/><path style="fill:#212121;" d="M28.5,32.4c.8-1.3-.1-1.9-.6-1.3c-.6,.7-2.3,1.8-4.5,1.1 c-1.2-.4-2.1-.8-2.6-2.3c-.3-1-.2-2.4-.2-3.4c0-.5-2.1-.5-2.3-.1c-.3,.8-.3,1.7-.3,2.5 c-0,1-.2,2.1-1,2.6c-2.6,1.7-4.2-.8-4.5-1.1c-.1-.1-.4,.7-.2,1.5c1.2,4,5.7,3.3,6.9,1.4 C19.5,34.7,25.1,37.6,28.5,32.4z"/><path style="fill:#825B4E;" d="M7.9,62.7c.2,.2,.4,.4,.6,.5c.4,.4,1,.3,1.4-.1 c.5-.5,1-1.3,1.3-2.4c.7-2.1,.4-5.1-.9-7.2l-1.2,1.2c.9,2.9,.6,5.4-.4,7 C8.4,62.3,7.9,62.6,7.9,62.7z"/><path style="fill:#825B4E;" d="M39.1,42.9l-.7,3.4c3.1-.4,6.5-6.4,6.5-6.4l0,4.1c4-2.2,6.1-11.5,6.1-11.5 c.4,4.5,.8,14.6-12.8,16.3c-4.9,.6-10-1.4-10-1.4S35.8,46.9,39.1,42.9z"/><path style="fill:#825B4E;" d="M6.9,47c1.7-2.7,4.7-3.5,7.1-3.1c.1,0,.4,.1,.5,.2 c.2,.2,.1,.4-.1,.6c-.2,.1-.4,.2-.6,.2c-1.2,.3-2.3,1.2-2.5,2.5c.9-.4,1.9-.3,2.7,.2 c.2,.1,.5,.4,.3,.6c-.1,.1-.2,.2-.4,.2c-1.1,.3-1.8,1.5-1.9,2.6c.6-.1,1.2-.2,1.7-.1 c.6,.1,1.4,.6,1.3,1c-.1,.5-1.4,.2-2,1.2c-.4,.7-.6,1.6-1.3,2.1c-.6,.5-1.4,.6-2.2,.4 c-.7-.2-1.4-.7-1.9-1.3C6.1,52.3,5.7,49.3,6.9,47"/></g></svg>