<svg xmlns="http://www.w3.org/2000/svg" viewBox="0 0 128 128"><path style="fill:#A06841;" d="M120.6,116.8l-6.6,5.7c-2.5,2.2-6.4,1.9-8.6-.6L37.1,40.6l10.2-9.3l73.9,77 C123.3,110.8,123.1,114.6,120.6,116.8z"/><g><path style="fill:#7D5133;" d="M58.4,43L47.3,31.4l-10.2,9.3l15.5,18.5C55.5,54.2,57.5,48.4,58.4,43z"/><g><path style="fill:#82AEC0;" d="M86.4,4L86.4,4C51.4,3.5,31.5,23.5,31.5,23.5S9.9,44,5.6,79 c-0,.8-0,1.5,1,1.7c1.3,.3,1.6-.5,1.9-1c4.2-8.7,13.4-26,32.4-43.6S78.2,10.5,87.2,7 c.6-.2,1-.8,1-1.5C88.2,4.3,87.4,4,86.4,4z"/></g></g><path style="fill:#A06841;" d="M38,19.6l-.6-.6c-.2-.2-.6-.3-.8-.1c-6.3,3.3-9.2,7.6-10.6,9.9 c-.1,.3-.1,.6,.1,.8c.2,.2,.4,.4,.6,.6c.9,1,4.2-.6,7.3-3.5S38.9,20.6,38,19.6z"/><path style="fill:#2F7889;" d="M39.9,30.9C13.5,54.5,7.7,80.6,7.7,80.6s.3-.1,.6-.5c3.8-7.9,12.3-22.8,28.1-38.7 c1.6,1.9,7.3,8.4,7.4,8.6c.9,1,4.5-.7,7.8-3.8c3.3-3.1,5.3-6.3,4.4-7.3l-7.8-8.4 c16.4-13.6,31.1-20.5,39-23.6c.6-.2,.7-.6,.7-.6C87.8,6.4,66.1,7.4,39.9,30.9z"/></svg>