<svg xmlns="http://www.w3.org/2000/svg" viewBox="0 0 128 128"><g><g><path style="fill:#FDD835;" d="M121.6,60.8l-13.9-4.5c-8.9-2.9-14.1-10.1-16.6-19.2L85,7.3 c-.2-.6-.5-1.4-1.7-1.4c-1,0-1.6,.8-1.7,1.4l-6.1,29.9c-2.5,9.1-7.7,16.3-16.6,19.2l-13.9,4.5 c-2,.6-2,3.4-0,4.1l14,4.8c8.9,3,14.1,10.2,16.5,19.2l6.1,29.5c.2,.6,.5,1.7,1.8,1.7 c1.3,0,1.6-1.1,1.8-1.6l6.1-29.5c2.5-9,7.6-16.2,16.5-19.2l14-4.8C123.6,64.3,123.6,61.5,121.6,60.8z"/><path style="fill:#FFEE58;" d="M122.9,62.1c-.2-.5-.6-1-1.3-1.2l-13.9-4.5c-8.9-2.9-14.1-10.1-16.6-19.2 L85,7.3c-.1-.3-.4-1-.8-1.1l2,30c1.5,13.7,2.7,20.1,13.7,22C109.2,59.7,120,61.6,122.9,62.1z" /><path style="fill:#F4B400;" d="M122.9,63.6l-24.2,5.5c-8.5,2.2-13.2,7.1-13.2,20l-2.4,30.9 c.8-.1,1.5-.5,1.8-1.6l6.1-29.5c2.5-9,7.6-16.2,16.5-19.2l14-4.8C122.3,64.7,122.7,64.2,122.9,63.6z" /></g><g><path style="fill:#FDD835;" d="M41.8,86.8c-8.3-2.7-9.1-5.8-10.5-11.1l-3.5-12.2c-.2-.8-2.3-.8-2.5,0 L23,74.8c-1.4,5.2-4.4,9.4-9.5,11l-8.2,3.5c-1.1,.4-1.1,2-0,2.4l8.2,2.9c5.1,1.7,8.1,5.8,9.5,11 l2.4,10.8c.2,.8,2.3,.8,2.5,0l2.8-10.8c1.4-5.2,3.6-9.4,10.5-11.1l7.7-2.9c1.1-.4,1.1-2-0-2.4 L41.8,86.8z"/><path style="fill:#FFEE58;" d="M28.5,75.6c.9,7.9,1.3,10,7.7,11.7l13.3,2.6c-.1-.2-.3-.3-.6-.4l-7-2.6 c-7.3-2.5-9.3-5.7-10.7-12c-1.4-6.4-2.8-10.5-2.8-10.5c-.5-1.4-1.2-1.3-1.2-1.3L28.5,75.6z"/><path style="fill:#F4B400;" d="M28.7,103c0-7.4,4.1-11.1,10.5-11.1l10-.4c0,0-.6,.8-1.6,1l-6.5,2.1 c-5.5,2.2-8.1,3.4-9.8,10.9c0,0-2.2,8.8-2.6,9.8c-.6,1.3-1.3,1.6-1.3,1.6L28.7,103z"/></g><path style="fill:#F4B400;stroke:#F4B400;stroke-miterlimit:10;" d="M59.7,28.1c.6-.2,.5-1-0-1.1l-7.7-2.1 c-1.6-.4-2.9-1.7-3.3-3.3L45.6,9.1c-.1-.6-1-.6-1.2,0l-2.9,12.5c-.4,1.7-1.7,2.9-3.4,3.4l-7.7,2 c-.6,.2-.6,1-0,1.2l8.1,2.8c1.5,.5,2.6,1.7,3,3.2l2.9,11.6c.2,.6,1,.6,1.2,0l3-11.6 c.5-1.5,1.6-2.6,3-3.1L59.7,28.1z"/></g></svg>